<svg id="icons" xmlns="http://www.w3.org/2000/svg" xmlns:xlink="http://www.w3.org/1999/xlink" viewBox="0 0 340 340"><defs><linearGradient id="linear-gradient" x1="244.299" y1="1.245" x2="5.346" y2="247.598" gradientUnits="userSpaceOnUse"><stop offset="0" stop-color="#ffffff" id="id_111"></stop><stop offset="0.481" stop-color="#ffffff" id="id_112"></stop><stop offset="1" stop-color="#ffffff" id="id_113"></stop></linearGradient><linearGradient id="linear-gradient-2" x1="336.411" y1="90.59" x2="97.459" y2="336.943" xlink:href="#linear-gradient"></linearGradient><linearGradient id="linear-gradient-3" x1="338.437" y1="92.555" x2="99.485" y2="338.908" xlink:href="#linear-gradient"></linearGradient><linearGradient id="linear-gradient-4" x1="242.273" y1="-0.72" x2="3.321" y2="245.633" xlink:href="#linear-gradient"></linearGradient><linearGradient id="linear-gradient-5" x1="290.355" y1="45.917" x2="51.403" y2="292.271" xlink:href="#linear-gradient"></linearGradient></defs><path d="M230.828,74.706A112.354,112.354,0,0,0,180.937,57.5V23.243H159.063V57.5a112.354,112.354,0,0,0-49.891,17.207l11.771,18.44A90.612,90.612,0,0,1,159.063,79.5v43.544h21.874V79.5a90.612,90.612,0,0,1,38.12,13.651Z" style="fill:url(#linear-gradient)" id="id_101"></path><path d="M230.828,265.294A112.354,112.354,0,0,1,180.937,282.5v34.256H159.063V282.5a112.354,112.354,0,0,1-49.891-17.207l11.771-18.44a90.612,90.612,0,0,0,38.12,13.651V216.961h21.874v43.544a90.612,90.612,0,0,0,38.12-13.651Z" style="fill:url(#linear-gradient-2)" id="id_102"></path><path d="M265.294,230.828A112.354,112.354,0,0,0,282.5,180.937h34.256V159.063H282.5a112.354,112.354,0,0,0-17.207-49.891l-18.44,11.771a90.612,90.612,0,0,1,13.651,38.12H216.961v21.874h43.544a90.612,90.612,0,0,1-13.651,38.12Z" style="fill:url(#linear-gradient-3)" id="id_103"></path><path d="M74.706,230.828A112.354,112.354,0,0,1,57.5,180.937H23.243V159.063H57.5a112.354,112.354,0,0,1,17.207-49.891l18.44,11.771A90.612,90.612,0,0,0,79.5,159.063h43.544v21.874H79.5a90.612,90.612,0,0,0,13.651,38.12Z" style="fill:url(#linear-gradient-4)" id="id_104"></path><circle cx="170" cy="170" r="14.228" style="fill:url(#linear-gradient-5)" id="id_105"></circle><path d="M219.748,96.281a3.207,3.207,0,0,0,2.015-1.407l11.771-18.441A3.21,3.21,0,0,0,232.558,72a116.3,116.3,0,0,0-48.41-17.381V23.243a3.21,3.21,0,0,0-3.211-3.211H159.063a3.21,3.21,0,0,0-3.211,3.211V54.62A116.3,116.3,0,0,0,107.442,72a3.21,3.21,0,0,0-.976,4.432l11.771,18.441a3.211,3.211,0,0,0,4.436.976,86.74,86.74,0,0,1,33.179-12.664v39.853a3.211,3.211,0,0,0,3.211,3.211h21.874a3.211,3.211,0,0,0,3.211-3.211V83.186A86.74,86.74,0,0,1,217.327,95.85,3.2,3.2,0,0,0,219.748,96.281ZM181.319,76.308a3.209,3.209,0,0,0-3.592,3.187v40.334H162.273V79.5a3.209,3.209,0,0,0-3.592-3.187,93.13,93.13,0,0,0-36.732,12.447L113.63,75.722A109.9,109.9,0,0,1,159.369,60.7a3.211,3.211,0,0,0,2.9-3.2V26.453h15.454V57.5a3.211,3.211,0,0,0,2.9,3.2A109.9,109.9,0,0,1,226.37,75.722l-8.319,13.033A93.13,93.13,0,0,0,181.319,76.308Z" style="fill: rgb(3, 3, 3);" id="id_106"></path><path d="M221.763,245.126a3.211,3.211,0,0,0-4.436-.976,86.74,86.74,0,0,1-33.179,12.664V216.961a3.211,3.211,0,0,0-3.211-3.211H159.063a3.211,3.211,0,0,0-3.211,3.211v39.853a86.74,86.74,0,0,1-33.179-12.664,3.211,3.211,0,0,0-4.436.976l-11.771,18.441a3.21,3.21,0,0,0,.976,4.432,116.3,116.3,0,0,0,48.41,17.381v31.377a3.21,3.21,0,0,0,3.211,3.211h21.874a3.21,3.21,0,0,0,3.211-3.211V285.38A116.3,116.3,0,0,0,232.558,268a3.21,3.21,0,0,0,.976-4.432Zm-41.132,34.179a3.211,3.211,0,0,0-2.9,3.2v31.046H162.273V282.5a3.211,3.211,0,0,0-2.9-3.2,109.9,109.9,0,0,1-45.739-15.027l8.319-13.033a93.13,93.13,0,0,0,36.732,12.447,3.209,3.209,0,0,0,3.592-3.187V220.171h15.454v40.334a3.209,3.209,0,0,0,3.592,3.187,93.13,93.13,0,0,0,36.732-12.447l8.319,13.033A109.9,109.9,0,0,1,180.631,279.305Z" style="fill: rgb(3, 3, 3);" id="id_107"></path><path d="M316.757,155.852H285.38A116.3,116.3,0,0,0,268,107.442a3.21,3.21,0,0,0-4.432-.976l-18.441,11.771a3.211,3.211,0,0,0-.976,4.436,86.74,86.74,0,0,1,12.664,33.179H216.961a3.211,3.211,0,0,0-3.211,3.211v21.874a3.211,3.211,0,0,0,3.211,3.211h39.853a86.74,86.74,0,0,1-12.664,33.179,3.211,3.211,0,0,0,.976,4.436l18.441,11.771a3.209,3.209,0,0,0,4.432-.976,116.3,116.3,0,0,0,17.381-48.41h31.377a3.21,3.21,0,0,0,3.211-3.211V159.063A3.21,3.21,0,0,0,316.757,155.852Zm-3.21,21.875H282.5a3.211,3.211,0,0,0-3.2,2.9,109.9,109.9,0,0,1-15.027,45.739l-13.033-8.319a93.13,93.13,0,0,0,12.447-36.732,3.209,3.209,0,0,0-3.187-3.592H220.171V162.273h40.334a3.209,3.209,0,0,0,3.187-3.592,93.13,93.13,0,0,0-12.447-36.732l13.033-8.319a109.9,109.9,0,0,1,15.027,45.739,3.211,3.211,0,0,0,3.2,2.9h31.046Z" style="fill: rgb(3, 3, 3);" id="id_108"></path><path d="M23.243,184.148H54.62A116.3,116.3,0,0,0,72,232.558a3.209,3.209,0,0,0,4.432.976l18.441-11.771a3.211,3.211,0,0,0,.976-4.436,86.74,86.74,0,0,1-12.664-33.179h39.853a3.211,3.211,0,0,0,3.211-3.211V159.063a3.211,3.211,0,0,0-3.211-3.211H83.186A86.74,86.74,0,0,1,95.85,122.673a3.211,3.211,0,0,0-.976-4.436L76.433,106.466a3.209,3.209,0,0,0-4.432.976,116.3,116.3,0,0,0-17.381,48.41H23.243a3.21,3.21,0,0,0-3.211,3.211v21.874A3.21,3.21,0,0,0,23.243,184.148Zm3.21-21.875H57.5a3.211,3.211,0,0,0,3.2-2.9A109.9,109.9,0,0,1,75.722,113.63l13.033,8.319a93.13,93.13,0,0,0-12.447,36.732,3.209,3.209,0,0,0,3.187,3.592h40.334v15.454H79.5a3.209,3.209,0,0,0-3.187,3.592,93.13,93.13,0,0,0,12.447,36.732L75.722,226.37A109.9,109.9,0,0,1,60.7,180.631a3.211,3.211,0,0,0-3.2-2.9H26.453Z" style="fill: rgb(10, 10, 10);" id="id_109"></path><path d="M170,152.561A17.439,17.439,0,1,0,187.439,170,17.459,17.459,0,0,0,170,152.561Zm0,28.457A11.018,11.018,0,1,1,181.018,170,11.031,11.031,0,0,1,170,181.018Z" style="fill: rgb(3, 3, 3);" id="id_110"></path></svg>