<svg xmlns="http://www.w3.org/2000/svg" xml:space="preserve" width="43.3492mm" height="43.3492mm" version="1.1" style="shape-rendering:geometricPrecision; text-rendering:geometricPrecision; image-rendering:optimizeQuality; fill-rule:evenodd; clip-rule:evenodd" viewBox="0 0 4335 4335" xmlns:xlink="http://www.w3.org/1999/xlink">
 <defs>
  <style type="text/css">
   
    .fil6 {fill:none}
    .fil0 {fill:black;fill-rule:nonzero}
    .fil5 {fill:#646464;fill-rule:nonzero}
    .fil4 {fill:#9D9CA3;fill-rule:nonzero}
    .fil3 {fill:#ABAAB2;fill-rule:nonzero}
    .fil1 {fill:#F9B200;fill-rule:nonzero}
    .fil2 {fill:#FFD300;fill-rule:nonzero}
    .fil7 {fill:#FFE879;fill-rule:nonzero}
   
  </style>
 </defs>
 <g id="Layer_x0020_1">
  <metadata id="CorelCorpID_0Corel-Layer"></metadata>
  <g id="_574263376">
   <g>
    <polygon class="fil0" points="2153,3318 2153,2950 2182,2950 2182,3318 " id="id_101" style="fill: rgb(0, 0, 0);"></polygon>
    <path class="fil1" d="M2262 95c0,-53 -42,-95 -95,-95 -52,0 -94,42 -94,95l0 367c0,53 42,95 94,95 53,0 95,-42 95,-95l0 -367z" id="id_102" style="fill: rgb(0, 0, 0);"></path>
    <path class="fil1" d="M3156 348c26,-45 11,-102 -35,-128 -45,-26 -102,-11 -128,35l-184 318c-26,45 -10,103 35,129 45,25 102,10 128,-35l184 -319z" id="id_103" style="fill: rgb(0, 0, 0);"></path>
    <path class="fil1" d="M3687 948c45,-26 60,-83 34,-128 -26,-45 -83,-61 -128,-35l-319 184c-45,26 -60,83 -34,128 26,45 83,61 128,35l319 -184z" id="id_104" style="fill: rgb(0, 0, 0);"></path>
    <path class="fil1" d="M742 785c-45,-26 -103,-10 -128,35 -26,45 -11,102 34,128l319 184c45,26 102,10 128,-35 26,-45 11,-102 -34,-128l-319 -184z" id="id_105" style="fill: rgb(0, 0, 0);"></path>
    <path class="fil1" d="M1342 255c-26,-46 -83,-61 -129,-35 -45,26 -60,83 -34,128l184 319c26,45 83,60 128,35 45,-26 61,-84 35,-129l-184 -318z" id="id_106" style="fill: rgb(0, 0, 0);"></path>
    <path class="fil2" d="M2646 3476l-957 0c-52,0 -94,-43 -94,-95 0,-589 -135,-723 -261,-849 -137,-137 -266,-266 -266,-732 0,-304 123,-579 322,-778 199,-199 474,-322 777,-322 304,0 579,123 778,322 199,199 322,474 322,778 0,466 -129,595 -266,732 -126,126 -261,260 -261,849 0,52 -42,95 -94,95z" id="id_107" style="fill: rgb(255, 255, 255);"></path>
    <path class="fil3" d="M2617 3885c0,-52 -42,-94 -94,-94 -70,0 -641,0 -711,0 -52,0 -94,42 -94,94 0,121 48,231 126,312 2,2 3,4 5,6l1 0 0 0 0 0c81,82 194,132 317,132 121,0 231,-48 313,-126 2,-2 4,-4 6,-6l-1 0 0 0 1 0c81,-82 131,-194 131,-318z" id="id_108" style="fill: rgb(17, 18, 18);"></path>
    <path class="fil4" d="M2518 3980l-701 0c-61,0 -116,-25 -155,-65 -41,-40 -66,-95 -66,-156l0 0c0,-60 25,-116 66,-156 39,-40 94,-64 155,-64l701 0c60,0 116,24 155,64 41,40 66,96 66,156l0 0c0,61 -25,116 -66,156 -39,40 -95,65 -155,65z" id="id_109" style="fill: rgb(255, 255, 255);"></path>
    <path class="fil3" d="M2167 1820l-385 -222c-45,-26 -102,-10 -128,35 -26,45 -11,102 34,128l385 222 0 1398c0,52 42,95 94,95 53,0 95,-43 95,-95l0 -1398 384 -222c46,-26 61,-83 35,-128 -26,-45 -83,-61 -128,-35l-386 222z" id="id_110" style="fill: rgb(0, 0, 0);"></path>
    <path class="fil5" d="M1714 3287l907 0c60,0 115,24 155,64 40,40 65,96 65,156l0 0c0,61 -25,116 -65,156 -40,40 -95,65 -155,65l-907 0c-60,0 -115,-25 -155,-65 -40,-40 -65,-95 -65,-156l0 0c0,-60 25,-116 65,-156 40,-40 95,-64 155,-64z" id="id_111" style="fill: rgb(0, 0, 0);"></path>
   </g>
   <path class="fil6" d="M3478 1710c0,344 -51,602 -297,851 -71,72 -130,123 -172,217m-1683 0c-42,-94 -102,-145 -172,-217 -246,-249 -297,-507 -297,-851" id="id_112"></path>
   <path class="fil7" d="M3538 1710c0,-33 -27,-59 -60,-59 -32,0 -59,26 -59,59 0,167 -12,312 -54,444 -40,129 -110,248 -226,366 -9,9 -18,18 -26,26 -63,63 -117,116 -158,207 -13,30 0,65 30,79 29,13 65,0 78,-30 32,-72 79,-118 133,-172 9,-9 18,-18 27,-27 130,-132 209,-267 255,-414 46,-146 60,-302 60,-479zm-2266 1092c13,30 48,43 78,30 30,-14 43,-49 30,-79 -41,-91 -95,-144 -158,-207 -8,-8 -17,-17 -26,-26 -116,-118 -186,-237 -227,-366 -41,-132 -53,-277 -53,-444 0,-33 -27,-59 -59,-59 -33,0 -60,26 -60,59 0,177 14,333 59,479 47,147 126,282 256,414 9,9 18,18 27,27 54,54 101,100 133,172z" id="id_113" style="fill: rgb(0, 0, 0);"></path>
  </g>
 </g>
</svg>