<svg xmlns="http://www.w3.org/2000/svg" xml:space="preserve" width="43.3492mm" height="43.3492mm" version="1.1" style="shape-rendering:geometricPrecision; text-rendering:geometricPrecision; image-rendering:optimizeQuality; fill-rule:evenodd; clip-rule:evenodd" viewBox="0 0 4335 4335" xmlns:xlink="http://www.w3.org/1999/xlink">
 <defs>
  <style type="text/css">
   
    .fil4 {fill:#1D81CE}
    .fil0 {fill:#4D4D4D}
    .fil1 {fill:#99A4AC}
    .fil3 {fill:#D9F2F2}
    .fil2 {fill:#F1F1F1}
   
  </style>
 </defs>
 <g id="Layer_x0020_1">
  <metadata id="CorelCorpID_0Corel-Layer"></metadata>
  <path class="fil0" d="M1915 4084l-314 0c-28,0 -52,-21 -59,-46l-96 -395c-67,-21 -130,-49 -193,-88l-324 205c-25,14 -57,10 -78,-7l-222 -222c-21,-21 -25,-53 -10,-74l211 -349c-32,-60 -56,-127 -74,-197l-373 -88c-29,-7 -50,-32 -50,-60l0 -314c0,-28 21,-53 46,-60l398 -95c25,-74 53,-137 88,-190l-204 -328c-14,-24 -11,-56 10,-77l222 -222c21,-21 53,-25 74,-11l349 212c67,-32 130,-57 197,-74l85 -374c7,-28 32,-49 60,-49l317 0c28,0 53,21 60,46l95 398c4,2 9,3 14,5l0 -748 -134 0c-51,0 -74,-56 -53,-95l441 -754c23,-40 81,-45 105,0l441 757c20,35 0,95 -53,95l-134 0 0 666 187 187c21,21 24,53 10,77l-211 345c31,64 56,131 77,201l374 85 0 -1018c-75,0 -162,14 -187,-28 -11,-18 -14,-39 -4,-60l441 -955c22,-47 90,-47 112,0l441 955c16,37 -6,88 -57,88l-133 0 0 1655c62,119 98,254 98,398 0,469 -384,853 -852,853 -425,0 -779,-311 -845,-715 -45,20 -94,36 -145,49l-85 373c-7,25 -31,43 -63,43zm1279 -1512l-441 -102c-24,-3 -42,-24 -46,-45 -34,-187 -126,-237 -91,-300l204 -334c-34,-34 -125,-134 -158,-153l-314 198c-21,14 -46,14 -67,0 -157,-101 -259,-88 -271,-151l-85 -377 -218 0 -84 363c-14,70 -111,36 -282,134 -18,10 -43,10 -60,-4l-338 -204 -152 151 197 317c15,21 11,46 0,67 -42,64 -74,138 -105,229 -7,21 -25,35 -46,42l-380 92 0 218 366 85c68,13 36,100 134,282 10,21 10,42 0,63l-205 335 155 155 317 -201c22,-14 46,-14 67,0 159,102 259,88 272,152l91 380 215 0 85 -363c12,-64 95,-41 243,-115 -1,-60 6,-125 18,-182 -511,338 -1205,-29 -1205,-647 0,-426 348,-778 778,-778 484,0 844,436 764,908 182,-131 412,-188 642,-150l0 -65zm126 97c139,46 263,128 360,234l0 -1539c0,-79 95,-63 162,-63l-342 -747 -342 747c67,0 162,-16 162,63l0 1305zm369 454c-1,-1 -2,-2 -2,-4 -126,-221 -363,-370 -634,-370 -405,0 -733,327 -733,732 0,44 8,10 2,59 31,375 346,671 731,671 558,0 906,-604 636,-1088zm-1418 -1437c16,8 33,18 49,27l310 -195 0 -700c0,-79 93,-63 155,-63l-335 -571 -331 571c60,0 152,-15 152,63l0 868zm954 2003c-14,0 -31,-7 -42,-17l-158 -159c-11,-10 -18,-28 -18,-42l0 -296c0,-84 127,-84 127,0l0 268 141 141c42,42 9,105 -50,105zm-172 409c-342,0 -620,-278 -620,-617 0,-341 278,-620 620,-620 341,0 616,279 616,620 0,339 -275,617 -616,617zm0 -1113c-275,0 -497,222 -497,496 0,272 222,494 497,494 271,0 493,-222 493,-494 0,-274 -222,-496 -493,-496zm-1265 148c-261,0 -475,-212 -475,-476 0,-261 211,-475 475,-475 264,0 476,211 476,475 0,261 -215,476 -476,476zm0 -828c-194,0 -352,158 -352,352 0,194 158,352 352,352 194,0 352,-158 352,-352 0,-194 -158,-352 -352,-352zm0 -303c-363,0 -655,292 -655,655 0,363 296,652 655,652 359,0 652,-293 652,-652 0,-359 -293,-655 -652,-655z" id="id_123" style="fill: rgb(3, 3, 3);"></path>
  <path class="fil1" d="M1788 1879c484,0 844,436 764,908 182,-131 412,-188 642,-150l0 -65 -441 -102c-24,-3 -42,-24 -46,-45 -34,-187 -126,-237 -91,-300l204 -334c-34,-34 -125,-134 -158,-153l-314 198c-21,14 -46,14 -67,0 -157,-101 -259,-88 -271,-151l-85 -377 -218 0 -84 363c-14,70 -111,36 -282,134 -18,10 -43,10 -60,-4l-338 -204 -152 151 197 317c15,21 11,46 0,67 -42,64 -74,138 -105,229 -7,21 -25,35 -46,42l-380 92 0 218 366 85c68,13 36,100 134,282 10,21 10,42 0,63l-205 335 155 155 317 -201c22,-14 46,-14 67,0 159,102 259,88 272,152l91 380 215 0 85 -363c12,-64 95,-41 243,-115 -1,-60 6,-125 18,-182 -511,338 -1205,-29 -1205,-647 0,-426 348,-778 778,-778z" id="id_124" style="fill: rgb(255, 255, 255);"></path>
  <path class="fil2" d="M2440 2657c0,-359 -293,-655 -652,-655 -363,0 -655,292 -655,655 0,363 296,652 655,652 359,0 652,-293 652,-652zm-652 -475c264,0 476,211 476,475 0,261 -215,476 -476,476 -261,0 -475,-212 -475,-476 0,-261 211,-475 475,-475z" id="id_125" style="fill: rgb(255, 255, 255);"></path>
  <path class="fil2" d="M2140 2657c0,-194 -158,-352 -352,-352 -194,0 -352,158 -352,352 0,194 158,352 352,352 194,0 352,-158 352,-352z" id="id_126" style="fill: rgb(255, 255, 255);"></path>
  <path class="fil3" d="M3007 3175c0,-84 127,-84 127,0l0 268 141 141c42,42 9,105 -50,105 -14,0 -31,-7 -42,-17l-158 -159c-11,-10 -18,-28 -18,-42l0 -296zm46 -190c-275,0 -497,222 -497,496 0,272 222,494 497,494 271,0 493,-222 493,-494 0,-274 -222,-496 -493,-496z" id="id_127" style="fill: rgb(255, 255, 255);"></path>
  <path class="fil3" d="M3053 2861c341,0 616,279 616,620 0,339 -275,617 -616,617 -342,0 -620,-278 -620,-617 0,-341 278,-620 620,-620zm634 258c-126,-221 -363,-370 -634,-370 -405,0 -733,327 -733,732 0,44 8,10 2,59 31,375 346,671 731,671 558,0 906,-604 636,-1088l-2 -4z" id="id_128" style="fill: rgb(255, 255, 255);"></path>
  <path class="fil4" d="M3320 2669c139,46 263,128 360,234l0 -1539c0,-79 95,-63 162,-63l-342 -747 -342 747c67,0 162,-16 162,63l0 1305z" id="id_129" style="fill: rgb(255, 255, 255);"></path>
  <path class="fil4" d="M2630 1518l0 -700c0,-79 93,-63 155,-63l-335 -571 -331 571c60,0 152,-15 152,63l0 868c16,8 33,18 49,27l310 -195z" id="id_130" style="fill: rgb(255, 255, 255);"></path>
 </g>
</svg>