<svg width="512" height="512" viewBox="0 0 512 512" fill="none" xmlns="http://www.w3.org/2000/svg">
<path d="M256 264C322.274 264 376 210.274 376 144C376 77.7258 322.274 24 256 24C189.726 24 136 77.7258 136 144C136 210.274 189.726 264 256 264Z" fill="#ffffff" id="id_101"></path>
<path d="M327.431 320.569L364 284C369.304 278.696 376.498 275.716 384 275.716C391.501 275.716 398.696 278.695 404 284C409.304 289.304 412.284 296.498 412.284 304C412.284 311.501 409.304 318.695 404 324L425.941 302.059C430.398 297.602 433.934 292.31 436.346 286.487C438.758 280.663 440 274.421 440 268.118V96C440 89.6348 442.529 83.5303 447.029 79.0294C451.53 74.5286 457.635 72 464 72C470.365 72 476.47 74.5286 480.971 79.0294C485.471 83.5303 488 89.6348 488 96V310.863C488 332.08 479.571 352.428 464.569 367.431L417.373 414.627C414.401 417.599 412.044 421.127 410.436 425.009C408.828 428.891 408 433.053 408 437.255V496H304V377.137C304 366.631 306.069 356.229 310.09 346.522C314.11 336.816 320.003 327.997 327.431 320.569V320.569Z" fill="#ffffff" id="id_102"></path>
<path d="M352.001 364.687L388.687 328.001C390.187 326.5 392.222 325.658 394.344 325.658C396.466 325.658 398.5 326.5 400.001 328.001V328.001C401.501 329.501 402.344 331.536 402.344 333.658C402.344 335.779 401.501 337.814 400.001 339.315L363.315 376.001C362.572 376.744 361.69 377.333 360.719 377.735C359.749 378.137 358.708 378.344 357.658 378.344C356.607 378.344 355.567 378.137 354.596 377.735C353.626 377.333 352.744 376.744 352.001 376.001V376.001C350.5 374.5 349.658 372.466 349.658 370.344C349.658 368.222 350.5 366.187 352.001 364.687L352.001 364.687Z" fill="#ffffff" id="id_103"></path>
<path d="M184.569 320.569L148 284C142.696 278.696 135.502 275.716 128 275.716C120.499 275.716 113.304 278.695 108 284C102.696 289.304 99.7157 296.498 99.7157 304C99.7156 311.501 102.696 318.695 108 324L86.0589 302.059C81.6017 297.602 78.066 292.31 75.6538 286.487C73.2415 280.663 72 274.421 72 268.118V96C72 89.6348 69.4714 83.5303 64.9706 79.0294C60.4697 74.5286 54.3652 72 48 72C41.6348 72 35.5303 74.5286 31.0294 79.0294C26.5286 83.5303 24 89.6348 24 96V310.863C24 332.08 32.4285 352.428 47.4315 367.431L94.6275 414.627C97.599 417.599 99.9561 421.127 101.564 425.009C103.172 428.891 104 433.053 104 437.255V496H208V377.137C208 366.631 205.931 356.229 201.91 346.522C197.89 336.816 191.997 327.997 184.569 320.569Z" fill="#ffffff" id="id_104"></path>
<path d="M112.001 327.999L112.001 327.999C108.876 331.124 108.876 336.189 112.001 339.313L148.687 375.999C151.811 379.124 156.876 379.124 160.001 375.999C163.125 372.875 163.125 367.81 160.001 364.685L123.315 327.999C120.19 324.875 115.125 324.875 112.001 327.999Z" fill="#3092a6" id="id_105"></path>
<path d="M282.344 322.343L264.001 340.686V288H248.001V340.686L229.658 322.343L218.344 333.657L256.001 371.313L293.658 333.657L282.344 322.343Z" fill="#31C292" id="id_106"></path>
<path d="M264 208.002H248V138.851L340.689 96.7188L347.311 111.285L264 149.153V208.002Z" fill="#5CA4CC" id="id_107"></path>
<path d="M344 152H375.728C375.902 149.355 376 146.689 376 144C376 141.311 375.902 138.645 375.728 136H344V152Z" fill="#338DBF" id="id_108"></path>
<path d="M136.272 152H168V136H136.272C136.098 138.645 136 141.311 136 144C136 146.689 136.098 149.355 136.272 152Z" fill="#121414" id="id_109"></path>
<path d="M264 24.2717C261.355 24.0977 258.689 24 256 24C253.311 24 250.645 24.0977 248 24.2717V56H264V24.2717Z" fill="#338DBF" id="id_110"></path>
<path d="M248 263.728C250.645 263.902 253.311 264 256 264C258.689 264 261.355 263.902 264 263.728V232H248V263.728Z" fill="#338DBF" id="id_111"></path>
<path d="M335.005 53.6836L314.344 74.3447L325.658 85.6592L346.319 64.998C342.802 60.9807 339.022 57.2009 335.005 53.6836V53.6836Z" fill="#338DBF" id="id_112"></path>
<path d="M346.319 223.005L325.658 202.344L314.344 213.658L335.005 234.319C339.022 230.802 342.802 227.022 346.319 223.005V223.005Z" fill="#338DBF" id="id_113"></path>
<path d="M165.684 223.005C169.201 227.022 172.981 230.802 176.998 234.319L197.659 213.658L186.345 202.344L165.684 223.005Z" fill="#338DBF" id="id_114"></path>
<path d="M165.684 64.998L186.345 85.6592L197.659 74.3447L176.998 53.6836C172.981 57.2009 169.201 60.9807 165.684 64.998V64.998Z" fill="#338DBF" id="id_115"></path>
<path d="M153.658 278.343C149.004 273.685 143.17 270.381 136.781 268.787C130.392 267.193 123.69 267.368 117.393 269.294C111.097 271.22 105.443 274.823 101.039 279.718C96.6347 284.613 93.6463 290.615 92.3941 297.079L91.7161 296.401C87.99 292.696 85.0359 288.288 83.0248 283.433C81.0138 278.579 79.9858 273.373 80.0003 268.118V96C80.0003 87.5131 76.6289 79.3737 70.6277 73.3726C64.6266 67.3714 56.4873 64 48.0003 64C39.5134 64 31.3741 67.3714 25.3729 73.3726C19.3717 79.3737 16.0003 87.5131 16.0003 96V310.863C15.9687 322.424 18.2304 333.877 22.6546 344.558C27.0788 355.239 33.5776 364.936 41.7747 373.089L88.9701 420.284C91.206 422.507 92.9787 425.152 94.1855 428.065C95.3922 430.978 96.0091 434.102 96.0003 437.255V496H112V437.255C112.015 432 110.986 426.794 108.975 421.939C106.964 417.084 104.01 412.676 100.285 408.97L53.0892 361.774C46.3822 355.104 41.0649 347.17 37.445 338.431C33.8251 329.692 31.9745 320.322 32.0003 310.863V96C32.0003 91.7565 33.686 87.6869 36.6866 84.6863C39.6872 81.6857 43.7569 80 48.0003 80C52.2438 80 56.3135 81.6857 59.314 84.6863C62.3146 87.6869 64.0003 91.7565 64.0003 96V268.118C63.9803 275.475 65.4196 282.763 68.2349 289.56C71.0502 296.357 75.1856 302.528 80.4017 307.716L154.343 381.657L165.658 370.343L113.658 318.343C109.854 314.539 107.718 309.38 107.718 304C107.719 298.621 109.856 293.463 113.659 289.659C117.463 285.855 122.622 283.718 128.001 283.718C133.38 283.718 138.539 285.854 142.343 289.657L178.911 326.226C185.618 332.896 190.936 340.83 194.556 349.569C198.176 358.308 200.026 367.678 200 377.137V496H216V377.137C216.032 365.576 213.77 354.123 209.346 343.442C204.922 332.761 198.423 323.064 190.226 314.911L153.658 278.343Z" fill="black" id="id_116"></path>
<path d="M464 64C455.516 64.0097 447.383 67.3842 441.384 73.3833C435.385 79.3824 432.01 87.5161 432 96V268.118C432.015 273.373 430.987 278.579 428.976 283.433C426.965 288.288 424.011 292.696 420.285 296.401L419.606 297.079C418.354 290.615 415.366 284.613 410.962 279.718C406.558 274.823 400.904 271.22 394.607 269.294C388.311 267.368 381.609 267.193 375.22 268.787C368.831 270.381 362.997 273.685 358.343 278.343L321.775 314.911C313.578 323.064 307.079 332.761 302.655 343.442C298.23 354.123 295.969 365.576 296 377.137V496H312V377.137C311.974 367.678 313.825 358.308 317.445 349.569C321.065 340.83 326.382 332.896 333.089 326.226L369.658 289.657C373.462 285.854 378.621 283.718 384 283.718C389.379 283.718 394.538 285.855 398.341 289.659C402.145 293.463 404.282 298.621 404.282 304C404.283 309.38 402.146 314.539 398.343 318.343L346.343 370.343L357.658 381.657L431.599 307.716C436.815 302.528 440.95 296.357 443.766 289.56C446.581 282.763 448.02 275.475 448 268.118V96C448 91.7565 449.686 87.6869 452.687 84.6863C455.687 81.6857 459.757 80 464 80C468.244 80 472.313 81.6857 475.314 84.6863C478.315 87.6869 480 91.7565 480 96V310.863C480.026 320.322 478.176 329.692 474.556 338.431C470.936 347.17 465.618 355.104 458.911 361.774L411.716 408.97C407.99 412.676 405.036 417.084 403.025 421.939C401.014 426.794 399.986 432 400 437.255V496H416V437.255C415.992 434.102 416.608 430.978 417.815 428.065C419.022 425.152 420.795 422.507 423.031 420.284L470.226 373.089C478.423 364.936 484.922 355.239 489.346 344.558C493.77 333.877 496.032 322.424 496 310.863V96C495.991 87.5161 492.616 79.3824 486.617 73.3833C480.618 67.3842 472.484 64.0097 464 64V64Z" fill="black" id="id_117"></path>
<path d="M264.001 340.686V288H248.001V340.686L229.658 322.343L218.344 333.657L256.001 371.313L293.658 333.657L282.344 322.343L264.001 340.686Z" fill="black" id="id_118"></path>
<path d="M256 272C281.316 272 306.063 264.493 327.113 250.428C348.162 236.363 364.569 216.372 374.257 192.984C383.945 169.595 386.479 143.858 381.541 119.029C376.602 94.1989 364.411 71.3915 346.51 53.4904C328.609 35.5893 305.801 23.3984 280.972 18.4595C256.142 13.5206 230.405 16.0555 207.017 25.7435C183.628 35.4315 163.637 51.8376 149.572 72.8871C135.507 93.9366 128 118.684 128 144C128.038 177.936 141.537 210.471 165.533 234.467C189.529 258.464 222.064 271.962 256 272ZM144.289 136C146 111.871 155.511 88.952 171.385 70.6995L186.343 85.6573L197.657 74.3428L182.699 59.3851C200.952 43.5092 223.87 33.9978 248 32.2847V56.0001H264V32.2847C288.13 33.9978 311.048 43.5092 329.301 59.3851L314.343 74.3428L325.657 85.6573L340.615 70.6995C356.489 88.952 366 111.871 367.711 136H344V152H367.711C366 176.129 356.489 199.048 340.615 217.301L325.657 202.343L314.343 213.657L329.301 228.615C311.048 244.49 288.129 254 264 255.711V232H248V255.711C223.871 254 200.952 244.49 182.699 228.615L197.657 213.657L186.343 202.343L171.385 217.301C155.511 199.048 146 176.129 144.289 152H168V136H144.289Z" fill="black" id="id_119"></path>
<path d="M264 149.153L347.311 111.285L340.689 96.7188L248 138.851V208.002H264V149.153Z" fill="black" id="id_120"></path>
</svg>