<?xml version="1.0" encoding="UTF-8"?>
<svg version="1.1" xmlns="http://www.w3.org/2000/svg" width="500" height="500">
<path d="M0 0 C165 0 330 0 500 0 C500 165 500 330 500 500 C335 500 170 500 0 500 C0 335 0 170 0 0 Z " fill="#FEFEFE" transform="translate(0,0)"/>
<path d="M0 0 C14.85 0 29.7 0 45 0 C42.94238442 6.17284674 40.81687299 11.93458038 38.11328125 17.80078125 C37.73950348 18.62193924 37.36572571 19.44309723 36.98062134 20.28913879 C36.17893465 22.0493693 35.3752722 23.80870109 34.5697937 25.56719971 C32.40957693 30.28403215 30.26443368 35.00772134 28.1171875 39.73046875 C27.46444099 41.16459106 27.46444099 41.16459106 26.79850769 42.62768555 C22.79220473 51.43696507 18.85493593 60.27592539 14.9375 69.125 C9.27094404 81.91478713 3.55852068 94.68321258 -2.1875 107.4375 C-2.56878052 108.28384003 -2.95006104 109.13018005 -3.34289551 110.00216675 C-4.84482508 113.33584746 -6.34682281 116.66949744 -7.84899902 120.00306702 C-12.73400918 130.84555259 -17.59449597 141.69901031 -22.45556641 152.55224609 C-25.13574692 158.53541226 -27.81800678 164.51764623 -30.5 170.5 C-31.58334267 172.91666248 -32.66667602 175.33332914 -33.75 177.75 C-40.25 192.25 -40.25 192.25 -41.87744141 195.88037109 C-42.9527116 198.27910055 -44.02790782 200.67786317 -45.10302734 203.07666016 C-47.63190118 208.71882113 -50.16150468 214.36064968 -52.69378662 220.00128174 C-53.88461378 222.65396073 -55.07501336 225.30683151 -56.26538086 227.9597168 C-56.83075995 229.21941544 -57.39634652 230.47902099 -57.9621582 231.73852539 C-58.74874211 233.48950699 -59.5345411 235.24084113 -60.3203125 236.9921875 C-60.76648926 237.98589355 -61.21266602 238.97959961 -61.67236328 240.00341797 C-63.14320276 243.32322005 -64.5696631 246.66254723 -66 250 C-81.18 250 -96.36 250 -112 250 C-106.82733171 237.93044065 -101.67227626 225.91859159 -96.17120361 214.00601196 C-94.43163641 210.23756131 -92.70215621 206.46448541 -90.97265625 202.69140625 C-90.4570816 201.56695351 -90.4570816 201.56695351 -89.93109131 200.41978455 C-86.94808351 193.90503343 -84.02333296 187.36536319 -81.125 180.8125 C-76.25011862 169.79347283 -71.32302682 158.79884353 -66.375 147.8125 C-65.99495819 146.96856689 -65.61491638 146.12463379 -65.22335815 145.25512695 C-63.27218796 140.92250926 -61.32056214 136.59009703 -59.36865234 132.2578125 C-55.47269289 123.61038433 -51.57995239 114.96150724 -47.6875 106.3125 C-47.30873718 105.47095367 -46.92997437 104.62940735 -46.53973389 103.76235962 C-41.3434935 92.21668911 -36.15731276 80.66658641 -30.98242188 69.11132812 C-27.82196009 62.05679674 -24.65396768 55.00570603 -21.48046875 47.95703125 C-21.08501862 47.07864594 -20.68956848 46.20026062 -20.28213501 45.29525757 C-18.33589973 40.97257592 -16.38906619 36.65016492 -14.44140625 32.328125 C-13.71483353 30.71484835 -12.98827062 29.10156729 -12.26171875 27.48828125 C-11.9505864 26.79837601 -11.63945404 26.10847076 -11.31889343 25.3976593 C-7.51362906 16.94595039 -3.76457828 8.47030112 0 0 Z " fill="#020202" transform="translate(283,118)"/>
<path d="M0 0 C3.47929139 0.61514775 5.54719357 1.94397716 8.31640625 4.10546875 C9.15300781 4.75193359 9.98960937 5.39839844 10.8515625 6.06445312 C11.74617188 6.76505859 12.64078125 7.46566406 13.5625 8.1875 C15.4690466 9.66145775 17.3766189 11.13408962 19.28515625 12.60546875 C20.24566895 13.34716309 21.20618164 14.08885742 22.19580078 14.85302734 C26.25473656 17.96066109 30.37242279 20.9844844 34.5 24 C45.68181672 32.19330067 56.68294783 40.62101933 67.68212891 49.05712891 C69.46577535 50.42499181 71.25068362 51.79121095 73.03686523 53.15576172 C74.79372027 54.50240882 76.5446404 55.85683681 78.28930664 57.21923828 C82.50907229 60.48587001 86.71086305 63.49619409 91.3203125 66.19140625 C103.74660527 73.63792715 103.74660527 73.63792715 105.74609375 80.76171875 C106.57328839 86.16475223 106.25622063 90.98305574 104 96 C99.94499127 101.36938201 94.21939872 104.81944322 88.58740234 108.34667969 C84.4025433 111.02075644 80.47205526 114.02322712 76.5 117 C74.91601078 118.16103836 73.33137407 119.32119388 71.74609375 120.48046875 C66.17392439 124.5864589 60.72122644 128.84057026 55.27075195 133.10595703 C50.35250253 136.95407947 45.39048892 140.73349712 40.3828125 144.46484375 C35.75210459 147.92408417 31.15994443 151.43426189 26.5625 154.9375 C25.65483887 155.62827637 24.74717773 156.31905273 23.81201172 157.03076172 C19.80204691 160.0858695 15.79841846 163.14735657 11.828125 166.25390625 C11.22411865 166.72513916 10.6201123 167.19637207 9.99780273 167.68188477 C8.42897539 168.90890183 6.86469148 170.14172189 5.30078125 171.375 C3 173 3 173 1 173 C-0.78808866 170.91088631 -2.4659697 168.8132691 -4.125 166.625 C-5.11288573 165.34344502 -6.10117026 164.06219735 -7.08984375 162.78125 C-7.82436768 161.82412109 -7.82436768 161.82412109 -8.57373047 160.84765625 C-10.58062003 158.24783766 -12.63087402 155.6856649 -14.6875 153.125 C-15.33074219 152.32320312 -15.97398437 151.52140625 -16.63671875 150.6953125 C-17.31154297 149.85613281 -17.31154297 149.85613281 -18 149 C-14.27149491 144.92350111 -9.88672031 141.85451871 -5.4375 138.625 C-3.71482412 137.36461016 -1.99216842 136.10419274 -0.26953125 134.84375 C0.60880371 134.20308594 1.48713867 133.56242188 2.39208984 132.90234375 C6.39220301 129.98445554 10.38573045 127.0576931 14.375 124.125 C15.14875977 123.5563623 15.92251953 122.98772461 16.71972656 122.40185547 C23.70316414 117.25246649 30.59229881 111.98293831 37.47998047 106.70654297 C43.62720283 102.01047574 49.85337112 97.45572515 56.1875 93.015625 C58.08930117 91.65266749 59.94416076 90.22214028 61.75 88.734375 C64 87 64 87 66 87 C61.86239169 82.57391302 57.27679131 79.10601173 52.375 75.5625 C50.66397871 74.3139169 48.9530436 73.06521569 47.2421875 71.81640625 C46.37045898 71.18234863 45.49873047 70.54829102 44.60058594 69.89501953 C40.55466531 66.94679986 36.52783803 63.97284817 32.5 61 C30.91676909 59.83319435 29.33343546 58.66652805 27.75 57.5 C24.58333333 55.16666667 21.41666667 52.83333333 18.25 50.5 C17.46496094 49.92161377 16.67992187 49.34322754 15.87109375 48.74731445 C14.30053535 47.58993322 12.73021957 46.43222268 11.16015625 45.27416992 C7.0083788 42.21257946 2.85154862 39.15816593 -1.3125 36.11328125 C-2.18068359 35.47712891 -3.04886719 34.84097656 -3.94335938 34.18554688 C-5.60978587 32.96468896 -7.2776855 31.7458385 -8.94726562 30.52929688 C-9.69685547 29.97951172 -10.44644531 29.42972656 -11.21875 28.86328125 C-11.87810547 28.38157471 -12.53746094 27.89986816 -13.21679688 27.40356445 C-14.94991992 26.03941818 -16.47675602 24.59240208 -18 23 C-17.28714844 22.09378906 -16.57429688 21.18757813 -15.83984375 20.25390625 C-10.54192526 13.51648693 -5.25089488 6.77419203 0 0 Z " fill="#EB578E" transform="translate(361,143)"/>
<path d="M0 0 C2.62177172 1.00198222 3.64226371 2.22668175 5.40014648 4.40332031 C6.00084961 5.14001953 6.60155273 5.87671875 7.22045898 6.63574219 C7.83663086 7.41111328 8.45280273 8.18648437 9.08764648 8.98535156 C9.70381836 9.74138672 10.31999023 10.49742187 10.95483398 11.27636719 C14.22666103 15.32402447 17.28841434 19.41005517 20.08764648 23.79785156 C18.1581422 25.21959156 16.22862803 26.64131814 14.29907227 28.06298828 C12.59025039 29.32220719 10.88159643 30.58165399 9.1730957 31.84130859 C4.89709852 34.993481 0.61922115 38.14295672 -3.66625977 41.28222656 C-12.99065708 48.11998667 -22.22184955 55.06648646 -31.40112305 62.09790039 C-36.97505513 66.35580864 -42.60591786 70.50924669 -48.34423828 74.54248047 C-52.43279804 77.42213468 -56.36607208 80.45746408 -60.24047852 83.61816406 C-61.91235352 84.79785156 -61.91235352 84.79785156 -63.91235352 84.79785156 C-59.77474521 89.22393854 -55.18914483 92.69183983 -50.28735352 96.23535156 C-48.57633223 97.48393467 -46.86539712 98.73263587 -45.15454102 99.98144531 C-44.2828125 100.61550293 -43.41108398 101.24956055 -42.51293945 101.90283203 C-38.46701883 104.8510517 -34.44019155 107.82500339 -30.41235352 110.79785156 C-28.8291226 111.96465721 -27.24578898 113.13132351 -25.66235352 114.29785156 C-22.49568685 116.6311849 -19.32902018 118.96451823 -16.16235352 121.29785156 C-15.37723389 121.87615723 -14.59211426 122.45446289 -13.78320312 123.05029297 C-12.21291715 124.2077543 -10.64340734 125.36626943 -9.07470703 126.52587891 C-4.92276973 129.59284227 -0.75570821 132.63601123 3.43530273 135.64941406 C4.30799805 136.28105469 5.18069336 136.91269531 6.07983398 137.56347656 C7.75594309 138.77598102 9.43673908 139.98204061 11.12280273 141.18066406 C11.87561523 141.72722656 12.62842773 142.27378906 13.40405273 142.83691406 C14.06864502 143.31338379 14.7332373 143.78985352 15.41796875 144.28076172 C17.27051519 145.96400833 18.11684645 147.50894338 19.08764648 149.79785156 C18.67925537 150.32217773 18.27086426 150.84650391 17.85009766 151.38671875 C15.99141338 153.77347731 14.13327478 156.16066014 12.27514648 158.54785156 C11.63254883 159.37285156 10.98995117 160.19785156 10.32788086 161.04785156 C9.7059082 161.84707031 9.08393555 162.64628906 8.44311523 163.46972656 C7.87230225 164.20288086 7.30148926 164.93603516 6.71337891 165.69140625 C5.1528154 167.71341284 3.61495576 169.75065026 2.08764648 171.79785156 C-1.43314689 171.18196207 -3.53003443 169.80281171 -6.33422852 167.62207031 C-7.18629883 166.96529297 -8.03836914 166.30851563 -8.91625977 165.63183594 C-9.8224707 164.92349609 -10.72868164 164.21515625 -11.66235352 163.48535156 C-13.57341296 162.00957446 -15.48487452 160.53431793 -17.39672852 159.05957031 C-18.33838867 158.33044434 -19.28004883 157.60131836 -20.25024414 156.85009766 C-23.77810514 154.13043519 -27.34034078 151.45908702 -30.91235352 148.79785156 C-37.04875196 144.21461353 -43.14041045 139.57478287 -49.22485352 134.92285156 C-56.73096919 129.18556304 -64.30111801 123.54673569 -71.92773438 117.97094727 C-78.40123761 113.21934541 -84.74459243 108.31143669 -91.04003906 103.32666016 C-91.73782471 102.77703613 -92.43561035 102.22741211 -93.15454102 101.66113281 C-94.12943481 100.88636597 -94.12943481 100.88636597 -95.12402344 100.09594727 C-97.00802353 98.63567951 -97.00802353 98.63567951 -99.83032227 97.48535156 C-102.29928726 95.48423923 -102.43721718 94.6727378 -103.03344727 91.62207031 C-103.61591708 85.50943654 -104.1384937 78.92515324 -100.42993164 73.71533203 C-96.29382698 69.61903899 -91.43737874 66.54655046 -86.52172852 63.46875 C-82.21986717 60.71407756 -78.18300111 57.61300214 -74.09985352 54.54785156 C-72.49827726 53.37161617 -70.89544435 52.19708964 -69.29125977 51.02441406 C-64.05958358 47.18269937 -58.92522319 43.22384854 -53.79321289 39.25 C-42.0818984 30.20808689 -30.29580198 21.27126477 -18.33740234 12.55834961 C-13.31333501 8.88412787 -8.48859943 5.08211973 -3.82250977 0.95800781 C-1.91235352 -0.20214844 -1.91235352 -0.20214844 0 0 Z " fill="#EB578E" transform="translate(136.912353515625,144.2021484375)"/>
</svg>
